Coordinates
version=1
nRows=17
nColumns=24
inDegrees=yes

Units are S.I. units (second, meters, Newtons, ...)
Angles are in degrees.

endheader
time	pelvis_tilt	pelvis_list	pelvis_rotation	pelvis_tx	pelvis_ty	pelvis_tz	hip_flexion_r	hip_adduction_r	hip_rotation_r	knee_angle_r	ankle_angle_r	subtalar_angle_r	mtp_angle_r	hip_flexion_l	hip_adduction_l	hip_rotation_l	knee_angle_l	ankle_angle_l	subtalar_angle_l	mtp_angle_l	lumbar_extension	lumbar_bending	lumbar_rotation
      0.53316667	     -6.51168987	      1.86854376	      2.37857426	     -0.40352768	      1.06081083	      0.33524374	     18.96843605	      0.65112539	     -2.78268049	    -21.06895413	      7.44432380	     -5.40460127	      8.81887737	     20.58530439	     -2.25116053	     -4.38152906	    -69.14123900	      3.95920746	      3.19525879	      5.45260158	    -12.03714943	      4.00110643	      0.23194508
      0.53733333	     -6.47797292	      1.95278966	      2.31455215	     -0.39835903	      1.06184699	      0.33562887	     18.46188538	      0.59763806	     -2.79595181	    -20.72750291	      7.56374532	     -5.23435653	      8.80638564	     21.05111038	     -2.16523183	     -4.45969190	    -68.80642321	      4.30058224	      3.50574874	      5.47027626	    -12.10327669	      3.85219137	      0.44736386
      0.54150000	     -6.45239724	      2.04033675	      2.24179653	     -0.39321687	      1.06283953	      0.33601568	     17.96911758	      0.54235810	     -2.79216709	    -20.38964954	      7.63040213	     -5.09754366	      8.79882292	     21.51344052	     -2.07571160	     -4.54581390	    -68.42226466	      4.66119104	      3.79829727	      5.48825810	    -12.17576024	      3.70356143	      0.59125539
      0.54566667	     -6.42841184	      2.12663623	      2.15682318	     -0.38806045	      1.06379738	      0.33640622	     17.47585268	      0.49122647	     -2.77355100	    -20.04518780	      7.71523026	     -4.95641428	      8.79230457	     21.96112310	     -1.99369919	     -4.65186572	    -67.98518954	      4.99192060	      4.07875323	      5.50762424	    -12.23656326	      3.55592988	      0.76872495
      0.54983333	     -6.40557192	      2.21581245	      2.05399323	     -0.38290667	      1.06469334	      0.33682894	     16.99263052	      0.43956379	     -2.75550785	    -19.71277726	      7.78162269	     -4.82848564	      8.78841250	     22.39467864	     -1.92127213	     -4.78884980	    -67.50178352	      5.32598038	      4.32039947	      5.52548065	    -12.27849690	      3.39416917	      0.91954133
      0.55400000	     -6.38231974	      2.30219430	      1.94876059	     -0.37776633	      1.06556641	      0.33723614	     16.50725275	      0.39118672	     -2.71692110	    -19.37518836	      7.86322586	     -4.69425080	      8.78538323	     22.81558686	     -1.85025462	     -4.92448415	    -66.96814352	      5.63564709	      4.56890789	      5.54412807	    -12.34018040	      3.23572880	      1.10611777
      0.55816667	     -6.35671037	      2.38267846	      1.83732708	     -0.37264339	      1.06640588	      0.33763401	     16.02155396	      0.34982006	     -2.66272466	    -19.03700291	      7.94580410	     -4.56707834	      8.78247824	     23.22115498	     -1.78439291	     -5.05971190	    -66.38477236	      5.92868538	      4.79686362	      5.56468288	    -12.41496507	      3.10293826	      1.33141708
      0.56233333	     -6.33108094	      2.46958294	      1.71527617	     -0.36751471	      1.06719820	      0.33805434	     15.53903280	      0.30236544	     -2.60855600	    -18.70160498	      8.01249599	     -4.44803773	      8.78097158	     23.61058553	     -1.72156432	     -5.22067298	    -65.75523404	      6.21264667	      4.96982949	      5.58290944	    -12.47485827	      2.93570788	      1.51465971
      0.56650000	     -6.31559096	      2.53657150	      1.59150974	     -0.36240127	      1.06792030	      0.33845266	     15.06941459	      0.27532044	     -2.54613173	    -18.36670315	      8.09181816	     -4.34300833	      8.77964534	     24.00278202	     -1.67808664	     -5.37372811	    -65.08695825	      6.48221894	      5.14904926	      5.60292816	    -12.52436185	      2.81430285	      1.74326713
      0.57066667	     -6.30747093	      2.61857437	      1.46198607	     -0.35728946	      1.06859974	      0.33887448	     14.61008134	      0.23289327	     -2.47647059	    -18.03248930	      8.14689001	     -4.23698118	      8.77993717	     24.38721253	     -1.62351510	     -5.54474986	    -64.37039669	      6.73275812	      5.25965428	      5.61686794	    -12.56922723	      2.64355373	      1.88721076
      0.57483333	     -6.30185611	      2.69539438	      1.32395399	     -0.35218582	      1.06921326	      0.33926954	     14.16284873	      0.19375997	     -2.39780175	    -17.71862511	      8.22864879	     -4.13917204	      8.78101545	     24.75808226	     -1.57456799	     -5.71822803	    -63.60461412	      6.97019398	      5.39069916	      5.63240635	    -12.60485714	      2.51713366	      2.10818315
      0.57900000	     -6.29481214	      2.75793812	      1.19703685	     -0.34709002	      1.06979404	      0.33966455	     13.70620822	      0.16862629	     -2.32403727	    -17.38516257	      8.31470492	     -4.05043624	      8.78267137	     25.12024076	     -1.53869854	     -5.87731567	    -62.80342953	      7.17837056	      5.47070473	      5.65006598	    -12.64685082	      2.36693392	      2.37267324
      0.58316667	     -6.30195309	      2.82723559	      1.06059105	     -0.34200436	      1.07029457	      0.34005663	     13.27543505	      0.13536710	     -2.24289825	    -17.07095241	      8.38711478	     -3.96099054	      8.78499857	     25.48151432	     -1.49709004	     -6.04871955	    -61.95616018	      7.37785107	      5.52241742	      5.66390405	    -12.67045086	      2.22965004	      2.54872465
      0.58733333	     -6.32041625	      2.90271190	      0.92052068	     -0.33692632	      1.07073290	      0.34044391	     12.86448416	      0.09321266	     -2.15839837	    -16.77075937	      8.44334746	     -3.87233117	      8.78739062	     25.83794134	     -1.44861642	     -6.22239296	    -61.05933945	      7.56244724	      5.54912602	      5.67098606	    -12.67959247	      2.10234743	      2.66083629
      0.59150000	     -6.34072166	      2.95174596	      0.79050846	     -0.33185190	      1.07111029	      0.34081113	     12.44887216	      0.07811404	     -2.07512873	    -16.45648522	      8.53578434	     -3.80008779	      8.79127112	     26.19086024	     -1.42537104	     -6.37765354	    -60.13557732	      7.71698162	      5.55922048	      5.67908667	    -12.69351222	      1.97485453	      2.90472350
      0.59566667	     -6.37240006	      3.00867081	      0.65717734	     -0.32679345	      1.07141878	      0.34116751	     12.05733417	      0.05175897	     -1.99296399	    -16.16490308	      8.59730329	     -3.72163772	      8.79422212	     26.53853246	     -1.39039456	     -6.53246245	    -59.16305613	      7.86308360	      5.54385611	      5.68208447	    -12.68586036	      1.87168547	      3.00849205
      0.59983333	     -6.39234704	      3.07034896	      0.52570296	     -0.32174448	      1.07170537	      0.34151368	     11.65447617	      0.01812906	     -1.91167248	    -15.87614974	      8.68347098	     -3.64786258	      8.79769011	     26.85728714	     -1.34692921	     -6.68133259	    -58.14297505	      7.97696404	      5.50345052	      5.68235172	    -12.69982416	      1.75013497	      3.15293993
